<?xml version="1.0" encoding="utf-8"?>
<!-- Generator: Adobe Illustrator 25.0.1, SVG Export Plug-In . SVG Version: 6.00 Build 0)  -->
<svg version="1.1" id="Layer_1" xmlns="http://www.w3.org/2000/svg" xmlns:xlink="http://www.w3.org/1999/xlink" x="0px" y="0px"
	 viewBox="0 0 550 426.87" style="enable-background:new 0 0 550 426.87;" xml:space="preserve">
<g>
	<path d="M522,263.16H28c-15.46,0-28-12.54-28-28v0c0-15.46,12.54-28,28-28h494c15.46,0,28,12.54,28,28v0
		C550,250.63,537.46,263.16,522,263.16z"/>
	<path d="M480.87,170.13L358.54,47.8c-10.93-10.93-10.93-28.66,0-39.6l0,0c10.93-10.93,28.66-10.93,39.6,0l122.33,122.33
		c10.93,10.93,10.93,28.66,0,39.6l0,0C509.53,181.06,491.8,181.06,480.87,170.13z"/>
	<path d="M541.45,255.31L378.1,418.66c-10.93,10.93-28.66,10.93-39.6,0l0,0c-10.93-10.93-10.93-28.66,0-39.6l163.36-163.36
		c10.93-10.93,28.66-10.93,39.6,0l0,0C552.39,226.65,552.39,244.37,541.45,255.31z"/>
</g>
</svg>
