<?xml version="1.0" encoding="utf-8"?>
<!-- Generator: Adobe Illustrator 25.0.1, SVG Export Plug-In . SVG Version: 6.00 Build 0)  -->
<svg version="1.1" id="Layer_1" xmlns="http://www.w3.org/2000/svg" xmlns:xlink="http://www.w3.org/1999/xlink" x="0px" y="0px"
	 viewBox="0 0 582 361.76" style="enable-background:new 0 0 582 361.76;" xml:space="preserve">
<g>
	<path d="M551.43,234.41H30.57C13.69,234.41,0,220.72,0,203.84v0c0-16.88,13.69-30.57,30.57-30.57h520.86
		c16.88,0,30.57,13.69,30.57,30.57v0C582,220.72,568.31,234.41,551.43,234.41z"/>
	<path d="M569.5,228.51l-171,127.2c-13.55,10.08-32.69,7.26-42.77-6.28l0,0c-10.08-13.55-7.26-32.69,6.28-42.77l171-127.2
		c13.55-10.08,32.69-7.26,42.77,6.28v0C585.86,199.28,583.05,218.43,569.5,228.51z"/>
	<path d="M513.59,91.66L398.5,6.04c-13.55-10.08-32.69-7.26-42.77,6.28l0,0c-10.08,13.55-7.26,32.69,6.28,42.77l115.09,85.61
		c13.55,10.08,32.69,7.26,42.77-6.28l0,0C529.95,120.88,527.14,101.73,513.59,91.66z"/>
</g>
</svg>
