<?xml version="1.0" encoding="utf-8"?>
<!-- Generator: Adobe Illustrator 25.0.1, SVG Export Plug-In . SVG Version: 6.00 Build 0)  -->
<svg version="1.1" id="Layer_1" xmlns="http://www.w3.org/2000/svg" xmlns:xlink="http://www.w3.org/1999/xlink" x="0px" y="0px"
	 viewBox="0 0 665.19 655.5" style="enable-background:new 0 0 665.19 655.5;" xml:space="preserve">
<g>
	<path d="M281.28,37.24v580.53c0,20.56-16.67,37.24-37.24,37.24c-2.17,0-4.3-0.19-6.36-0.54c-8.36-0.78-16.52-4.37-22.9-10.75
		L10.9,439.81c-14.54-14.54-14.54-38.12,0-52.65c7.26-7.26,16.81-10.9,26.32-10.9c9.55,0,19.06,3.64,26.34,10.9L206.81,530.4V37.24
		C206.81,16.67,223.48,0,244.05,0c10.29,0,19.6,4.16,26.34,10.9C277.12,17.64,281.28,26.94,281.28,37.24z"/>
	<path d="M627.19,80.5h-243c-20.99,0-38-17.01-38-38v0c0-20.99,17.01-38,38-38h243c20.99,0,38,17.01,38,38v0
		C665.19,63.49,648.18,80.5,627.19,80.5z"/>
	<path d="M627.19,277.5h-243c-20.99,0-38-17.01-38-38v0c0-20.99,17.01-38,38-38h243c20.99,0,38,17.01,38,38v0
		C665.19,260.49,648.18,277.5,627.19,277.5z"/>
	<path d="M627.19,466.5h-243c-20.99,0-38-17.01-38-38v0c0-20.99,17.01-38,38-38h243c20.99,0,38,17.01,38,38v0
		C665.19,449.49,648.18,466.5,627.19,466.5z"/>
	<path d="M627.19,655.5h-243c-20.99,0-38-17.01-38-38v0c0-20.99,17.01-38,38-38h243c20.99,0,38,17.01,38,38v0
		C665.19,638.49,648.18,655.5,627.19,655.5z"/>
</g>
</svg>
