<svg xmlns="http://www.w3.org/2000/svg" viewBox="0 0 1600 1600"><defs><style>.cls-1{fill:#fff;}</style></defs><g id="Layer_1" data-name="Layer 1"><path class="cls-1" d="M962.37,386.4c228.39,92.25,338.75,352.19,246.5,580.58-92,227.87-349.92,338.23-578.29,247.41-142.76-56.77-239.82-178.85-270.75-318.1a51,51,0,0,1,2.38-30.41c10-24.77,38.94-39.9,67.05-28.54a51.34,51.34,0,0,1,30.92,36.45c23.6,106.69,97.65,200.32,206.63,244.34,175.72,71,375.73-13.93,446.72-189.67s-13.94-375.73-189.67-446.71a341.69,341.69,0,0,0-228.2-10.19,8.93,8.93,0,0,0-2.2,16.05l120,77a53,53,0,1,1-57.25,89.21L546.65,519.35a53,53,0,0,1-4.18-86.25,51.42,51.42,0,0,1,6.1-4.71C667,349.91,820.73,329.19,962.37,386.4Z"/></g></svg>